<svg width="25" height="25" viewBox="0 0 25 25" fill="none" xmlns="http://www.w3.org/2000/svg">
<path d="M17.2057 0C17.902 2.38821e-05 18.5846 0.195738 19.1769 0.565218C19.7692 0.934698 20.248 1.46335 20.5595 2.09196L22.2882 5.58065C22.5932 5.45448 22.8969 5.32704 23.1919 5.17942C23.4887 5.02984 23.8321 5.00536 24.1467 5.11136C24.4613 5.21737 24.7213 5.44518 24.8695 5.74468C25.0176 6.04417 25.0419 6.39082 24.9369 6.70837C24.8319 7.02591 24.6062 7.28834 24.3095 7.43792C23.692 7.74831 23.4095 7.8442 23.4095 7.8442L24.6045 10.2579C24.8657 10.784 25.0007 11.3632 25.0007 11.9511V15.1408C25.0007 15.6734 24.8893 16.1999 24.674 16.6861C24.4586 17.1722 24.1439 17.607 23.7507 17.962V19.5569C23.7507 20.0588 23.5532 20.5402 23.2015 20.8952C22.8499 21.2501 22.373 21.4495 21.8757 21.4495C21.3784 21.4495 20.9015 21.2501 20.5499 20.8952C20.1982 20.5402 20.0007 20.0588 20.0007 19.5569V18.926H5.0007V19.5569C5.0007 20.0588 4.80316 20.5402 4.45153 20.8952C4.0999 21.2501 3.62298 21.4495 3.1257 21.4495C2.62842 21.4495 2.15151 21.2501 1.79988 20.8952C1.44825 20.5402 1.2507 20.0588 1.2507 19.5569V17.962C0.483202 17.2681 0.000701688 16.2612 0.000701688 15.1408V11.9511C0.000935286 11.3638 0.136597 10.7845 0.396952 10.2592L1.59195 7.8442C1.28909 7.71771 0.989802 7.58265 0.694452 7.43919C0.547113 7.3654 0.415649 7.26299 0.307595 7.13782C0.199541 7.01266 0.117021 6.8672 0.0647651 6.70978C0.0125095 6.55236 -0.00845437 6.38608 0.00307485 6.22047C0.0146041 6.05486 0.0583997 5.89317 0.131952 5.74468C0.283171 5.4465 0.544621 5.22041 0.859731 5.11533C1.17484 5.01025 1.51827 5.03464 1.8157 5.1832C2.1107 5.3262 2.40987 5.45868 2.7132 5.58065L4.44195 2.09196C4.75344 1.46335 5.23216 0.934698 5.8245 0.565218C6.41683 0.195738 7.09939 2.38821e-05 7.7957 0H17.2057ZM21.0432 8.71101C18.9182 9.38857 15.8945 10.0939 12.5007 10.0939C9.10695 10.0939 6.0832 9.3873 3.9582 8.71101L2.6332 11.3859C2.54608 11.5613 2.50071 11.7549 2.5007 11.9511V15.1408C2.5007 15.4754 2.6324 15.7964 2.86682 16.033C3.10124 16.2696 3.41918 16.4025 3.7507 16.4025H21.2507C21.5822 16.4025 21.9002 16.2696 22.1346 16.033C22.369 15.7964 22.5007 15.4754 22.5007 15.1408V11.9511C22.5005 11.7553 22.4551 11.5622 22.3682 11.3872L21.0432 8.71101ZM6.8757 11.3556C7.37298 11.3556 7.8499 11.555 8.20153 11.9099C8.55316 12.2649 8.7507 12.7463 8.7507 13.2482C8.7507 13.7502 8.55316 14.2315 8.20153 14.5865C7.8499 14.9414 7.37298 15.1408 6.8757 15.1408C6.37842 15.1408 5.90151 14.9414 5.54988 14.5865C5.19825 14.2315 5.0007 13.7502 5.0007 13.2482C5.0007 12.7463 5.19825 12.2649 5.54988 11.9099C5.90151 11.555 6.37842 11.3556 6.8757 11.3556ZM18.1257 11.3556C18.623 11.3556 19.0999 11.555 19.4515 11.9099C19.8032 12.2649 20.0007 12.7463 20.0007 13.2482C20.0007 13.7502 19.8032 14.2315 19.4515 14.5865C19.0999 14.9414 18.623 15.1408 18.1257 15.1408C17.6284 15.1408 17.1515 14.9414 16.7999 14.5865C16.4482 14.2315 16.2507 13.7502 16.2507 13.2482C16.2507 12.7463 16.4482 12.2649 16.7999 11.9099C17.1515 11.555 17.6284 11.3556 18.1257 11.3556ZM17.2057 2.52347H7.7957C7.56362 2.52359 7.33616 2.58893 7.13879 2.71216C6.94142 2.8354 6.78194 3.01166 6.6782 3.22121L5.0907 6.42223C7.0257 7.00893 9.6332 7.57041 12.5007 7.57041C15.3682 7.57041 17.9757 7.00893 19.9095 6.42223L18.3232 3.22121C18.2195 3.01166 18.06 2.8354 17.8626 2.71216C17.6652 2.58893 17.4378 2.52359 17.2057 2.52347Z" fill="#A8A8A8"/>
</svg>
