<svg width="21" height="22" viewBox="0 0 21 22" fill="none" xmlns="http://www.w3.org/2000/svg">
<path d="M13.5 20.7911V12.4578C13.5 12.1815 13.3903 11.9166 13.1949 11.7212C12.9996 11.5259 12.7346 11.4161 12.4583 11.4161H8.29167C8.0154 11.4161 7.75045 11.5259 7.5551 11.7212C7.35975 11.9166 7.25 12.1815 7.25 12.4578V20.7911" stroke="#009DFF" stroke-width="2" stroke-linecap="round" stroke-linejoin="round"/>
<path d="M1 9.33279C0.999927 9.02974 1.06597 8.73031 1.19353 8.45541C1.32109 8.18051 1.50708 7.93675 1.73854 7.74112L9.03021 1.49217C9.40623 1.17436 9.88266 1 10.375 1C10.8673 1 11.3438 1.17436 11.7198 1.49217L19.0115 7.74112C19.2429 7.93675 19.4289 8.18051 19.5565 8.45541C19.684 8.73031 19.7501 9.02974 19.75 9.33279V18.7078C19.75 19.2603 19.5305 19.7902 19.1398 20.1809C18.7491 20.5716 18.2192 20.7911 17.6667 20.7911H3.08333C2.5308 20.7911 2.00089 20.5716 1.61019 20.1809C1.21949 19.7902 1 19.2603 1 18.7078V9.33279Z" stroke="#009DFF" stroke-width="2" stroke-linecap="round" stroke-linejoin="round"/>
</svg>
