<svg width="23" height="23" viewBox="0 0 23 23" fill="none" xmlns="http://www.w3.org/2000/svg">
<path d="M0 4C0 1.79086 1.79086 0 4 0C6.20914 0 8 1.79086 8 4V8H4C1.79086 8 0 6.20914 0 4Z" fill="#353535"/>
<path d="M0 19C0 16.7909 1.79086 15 4 15H8V19C8 21.2091 6.20914 23 4 23C1.79086 23 0 21.2091 0 19Z" fill="#353535"/>
<path d="M15 15H19C21.2091 15 23 16.7909 23 19C23 21.2091 21.2091 23 19 23C16.7909 23 15 21.2091 15 19V15Z" fill="#353535"/>
<path d="M15 4C15 1.79086 16.7909 0 19 0C21.2091 0 23 1.79086 23 4C23 6.20914 21.2091 8 19 8H15V4Z" fill="#353535"/>
</svg>
