<svg width="10" height="18" viewBox="0 0 10 18" fill="none" xmlns="http://www.w3.org/2000/svg">
<path fill-rule="evenodd" clip-rule="evenodd" d="M0 1.25C0 0.918479 0.131696 0.600537 0.366117 0.366117C0.600537 0.131696 0.918479 0 1.25 0H8.75C9.08152 0 9.39946 0.131696 9.63388 0.366117C9.8683 0.600537 10 0.918479 10 1.25C10 1.58152 9.8683 1.89946 9.63388 2.13388C9.39946 2.3683 9.08152 2.5 8.75 2.5H6.83125C7.05741 2.89163 7.2294 3.31213 7.3425 3.75H8.75C9.08152 3.75 9.39946 3.8817 9.63388 4.11612C9.8683 4.35054 10 4.66848 10 5C10 5.33152 9.8683 5.64946 9.63388 5.88388C9.39946 6.1183 9.08152 6.25 8.75 6.25H7.3425C7.10841 7.15412 6.62608 7.97472 5.95004 8.61907C5.27399 9.26342 4.43118 9.70581 3.51688 9.89625L7.29 15.5569C7.38446 15.6934 7.45078 15.8473 7.48511 16.0097C7.51943 16.1721 7.52106 16.3397 7.48991 16.5028C7.45876 16.6658 7.39545 16.821 7.30367 16.9593C7.21189 17.0976 7.09348 17.2163 6.95535 17.3083C6.81723 17.4004 6.66215 17.464 6.49917 17.4955C6.33619 17.527 6.16857 17.5257 6.0061 17.4917C5.84363 17.4577 5.68955 17.3917 5.55287 17.2975C5.41618 17.2033 5.29963 17.0828 5.21 16.9431L0.21 9.44312C0.0845699 9.25488 0.0125713 9.03613 0.00167966 8.81019C-0.00921203 8.58425 0.0414113 8.35958 0.148153 8.16015C0.254895 7.96071 0.413755 7.79398 0.607798 7.67772C0.801842 7.56146 1.0238 7.50004 1.25 7.5H2.5C3.425 7.5 4.23313 6.9975 4.66563 6.25H1.25C0.918479 6.25 0.600537 6.1183 0.366117 5.88388C0.131696 5.64946 0 5.33152 0 5C0 4.66848 0.131696 4.35054 0.366117 4.11612C0.600537 3.8817 0.918479 3.75 1.25 3.75H4.66563C4.44616 3.36987 4.13047 3.05422 3.75032 2.8348C3.37016 2.61537 2.93894 2.4999 2.5 2.5H1.25C0.918479 2.5 0.600537 2.3683 0.366117 2.13388C0.131696 1.89946 0 1.58152 0 1.25Z" fill="white"/>
</svg>
