<svg width="25" height="25" viewBox="0 0 25 25" fill="none" xmlns="http://www.w3.org/2000/svg">
<path d="M15.7621 2.43998C15.0413 2.43998 14.3501 2.76118 13.8404 3.33291C13.3308 3.90465 13.0445 4.68008 13.0445 5.48863C13.0445 6.29719 13.3308 7.07262 13.8404 7.64436C14.3501 8.21609 15.0413 8.53729 15.7621 8.53729C16.4828 8.53729 17.1741 8.21609 17.6837 7.64436C18.1934 7.07262 18.4797 6.29719 18.4797 5.48863C18.4797 4.68008 18.1934 3.90465 17.6837 3.33291C17.1741 2.76118 16.4828 2.43998 15.7621 2.43998ZM10.8704 5.48863C10.8702 4.55459 11.0826 3.63596 11.4874 2.81972C11.8922 2.00349 12.476 1.31668 13.1835 0.824313C13.8911 0.331951 14.6989 0.0503404 15.5306 0.00614666C16.3623 -0.038047 17.1903 0.15664 17.9362 0.571771C18.6819 0.157134 19.5097 -0.0371581 20.3411 0.00728143C21.1725 0.051721 21.9801 0.333422 22.6874 0.825726C23.3946 1.31803 23.9782 2.00465 24.3829 2.82061C24.7876 3.63657 25 4.55488 25 5.48863C25 6.42239 24.7876 7.3407 24.3829 8.15666C23.9782 8.97262 23.3946 9.65924 22.6874 10.1515C21.9801 10.6438 21.1725 10.9255 20.3411 10.97C19.5097 11.0144 18.6819 10.8201 17.9362 10.4055C17.1903 10.8206 16.3623 11.0153 15.5306 10.9711C14.6989 10.9269 13.8911 10.6453 13.1835 10.153C12.476 9.66059 11.8922 8.97378 11.4874 8.15755C11.0826 7.34131 10.8702 6.42268 10.8704 5.48863ZM19.8385 8.52265C19.9276 8.53241 20.0182 8.53729 20.1102 8.53729C20.4781 8.53639 20.8419 8.45174 21.1797 8.28845C21.5176 8.12516 21.8223 7.88664 22.0755 7.58733C22.3287 7.28802 22.5252 6.93416 22.6529 6.54718C22.7806 6.1602 22.837 5.74817 22.8185 5.33603C22.8001 4.9239 22.7073 4.52025 22.5458 4.14954C22.3842 3.77883 22.1572 3.44877 21.8786 3.17937C21.6 2.90996 21.2755 2.70682 20.9248 2.58224C20.5741 2.45766 20.2045 2.41424 19.8385 2.45462C20.3703 3.35401 20.6539 4.40936 20.6538 5.48863C20.6539 6.56791 20.3703 7.62326 19.8385 8.52265ZM9.16918 14.9395C8.99069 14.9389 8.81387 14.9779 8.6488 15.054C8.48373 15.1302 8.33366 15.2421 8.20715 15.3833L5.97872 17.8832V22.5611H12.0955L18.4036 20.7929L22.243 18.9539C22.3738 18.8746 22.4739 18.744 22.524 18.587C22.5742 18.43 22.571 18.2578 22.5149 18.1033C22.4589 17.9489 22.354 17.8231 22.2204 17.7501C22.0867 17.677 21.9338 17.6619 21.7908 17.7076L21.7691 17.7137L14.799 19.5124H10.8704V17.0735H14.2674C14.5197 17.0735 14.7616 16.9611 14.94 16.761C15.1183 16.5609 15.2186 16.2895 15.2186 16.0065C15.2186 15.7235 15.1183 15.4521 14.94 15.252C14.7616 15.0519 14.5197 14.9395 14.2674 14.9395H9.16918ZM17.3785 16.3443L21.2397 15.348C21.6509 15.2267 22.0815 15.2127 22.4983 15.3071C22.9151 15.4016 23.307 15.6019 23.6441 15.8927C23.9811 16.1836 24.2542 16.5572 24.4425 16.9849C24.6308 17.4126 24.7292 17.883 24.7302 18.36C24.7297 18.9391 24.5857 19.5066 24.3143 19.9991C24.0428 20.4916 23.6546 20.8897 23.1931 21.1489L23.1637 21.166L19.0982 23.1111L12.3629 25H0V16.1589H4.44164L6.67225 13.6566C7.0009 13.2891 7.39086 12.9979 7.81984 12.7996C8.24883 12.6012 8.70844 12.4996 9.17244 12.5005H14.2674C14.7032 12.5005 15.1343 12.6027 15.5328 12.8006C15.9313 12.9985 16.2886 13.2877 16.5816 13.6497C16.8745 14.0117 17.0968 14.4384 17.234 14.9024C17.3713 15.3665 17.4205 15.8576 17.3785 16.3443ZM3.80464 18.5978H2.17408V22.5611H3.80464V18.5978Z" fill="#A8A8A8"/>
</svg>
